<?xml version="1.0" encoding="UTF-8" standalone="no"?>
<svg
   xmlns:dc="http://purl.org/dc/elements/1.1/"
   xmlns:cc="http://creativecommons.org/ns#"
   xmlns:rdf="http://www.w3.org/1999/02/22-rdf-syntax-ns#"
   xmlns:svg="http://www.w3.org/2000/svg"
   xmlns="http://www.w3.org/2000/svg"
   xmlns:sodipodi="http://sodipodi.sourceforge.net/DTD/sodipodi-0.dtd"
   xmlns:inkscape="http://www.inkscape.org/namespaces/inkscape"
   width="612px"
   height="792px"
   viewbox="0 0 612 792"
   id="svg2"
   version="1.1"
   inkscape:version="0.91 r13725"
   sodipodi:docname="apple.svg">
  <metadata
     id="metadata24">
    <rdf:RDF>
      <cc:Work
         rdf:about="">
        <dc:format>image/svg+xml</dc:format>
        <dc:type
           rdf:resource="http://purl.org/dc/dcmitype/StillImage" />
      </cc:Work>
    </rdf:RDF>
  </metadata>
  <defs
     id="defs22" />
  <sodipodi:namedview
     pagecolor="#ffffff"
     bordercolor="#666666"
     borderopacity="1"
     objecttolerance="10"
     gridtolerance="10"
     guidetolerance="10"
     inkscape:pageopacity="0"
     inkscape:pageshadow="2"
     inkscape:window-width="1920"
     inkscape:window-height="1043"
     id="namedview20"
     showgrid="false"
     inkscape:zoom="1.1919192"
     inkscape:cx="284.60375"
     inkscape:cy="541.0431"
     inkscape:window-x="1920"
     inkscape:window-y="0"
     inkscape:window-maximized="1"
     inkscape:current-layer="svg2" />
  <path
     d="m 423.3047,204.69126 75.0003,0 0,55 -75.0003,0 z"
     id="path4"
     inkscape:connector-curvature="0"
     style="stroke:#000000;stroke-width:1" />
  <path
     d="m 280.79747,114.87264 53.391,0 0,74.9997 -53.391,0 z"
     id="path6"
     inkscape:connector-curvature="0"
     style="fill:#ff0103;stroke:#000000;stroke-width:6" />
  <path
     stroke="#000000"
     stroke-width="1"
     d="M 98.125 144.387 C 98.125 162.06 84.9174 176.387 68.625 176.387 C 52.3326 176.387 39.125 162.06 39.125 144.387 C 39.125 126.714 52.3326 112.387 68.625 112.387 C 84.9174 112.387 98.125 126.714 98.125 144.387 Z "
     id="path8" />
  <path
     d="m 414.99725,304.43793 c 0,16.016 -21.646,29 -48.348,29 -26.702,0 -48.348,-12.984 -48.348,-29 0,-16.0163 21.646,-29 48.348,-29 26.702,0 48.348,12.9837 48.348,29 z"
     id="path10"
     inkscape:connector-curvature="0"
     style="fill:#00ff00;fill-opacity:0.6;stroke:#000000;stroke-width:5" />
  <path
     stroke="#000000"
     stroke-width="1"
     d="M 67.1143 84.7393 L 69.874 112.989 "
     id="path12" />
  <path
     stroke="#000000"
     stroke-width="1"
     d="M 102.309 29.6416 L 153.61 29.8916 "
     id="path14" />
  <path
     d="m 170.58061,158.98489 52.143,26.4346"
     id="path16"
     inkscape:connector-curvature="0"
     style="stroke:#000000;stroke-width:9" />
  <path
     d="m 97.483051,201.51695 99.999999,100 -50,-50"
     id="path18"
     inkscape:connector-curvature="0"
     style="stroke:#000000;stroke-width:8" />
</svg>
