<?xml version="1.0" encoding="UTF-8" standalone="no"?>
<!-- Created with Inkscape (http://www.inkscape.org/) -->
<svg
   xmlns:dc="http://purl.org/dc/elements/1.1/"
   xmlns:cc="http://creativecommons.org/ns#"
   xmlns:rdf="http://www.w3.org/1999/02/22-rdf-syntax-ns#"
   xmlns:svg="http://www.w3.org/2000/svg"
   xmlns="http://www.w3.org/2000/svg"
   xmlns:sodipodi="http://sodipodi.sourceforge.net/DTD/sodipodi-0.dtd"
   xmlns:inkscape="http://www.inkscape.org/namespaces/inkscape"
   width="744.09448819"
   height="1052.3622047"
   id="svg2"
   sodipodi:version="0.32"
   inkscape:version="0.46"
   sodipodi:docname="Emily the strange 01.svg"
   inkscape:output_extension="org.inkscape.output.svg.inkscape">
  <defs
     id="defs4">
    <inkscape:perspective
       sodipodi:type="inkscape:persp3d"
       inkscape:vp_x="0 : 526.18109 : 1"
       inkscape:vp_y="0 : 1000 : 0"
       inkscape:vp_z="744.09448 : 526.18109 : 1"
       inkscape:persp3d-origin="372.04724 : 350.78739 : 1"
       id="perspective10" />
    <inkscape:perspective
       sodipodi:type="inkscape:persp3d"
       inkscape:vp_x="0 : 526.18109 : 1"
       inkscape:vp_y="0 : 1000 : 0"
       inkscape:vp_z="744.09448 : 526.18109 : 1"
       inkscape:persp3d-origin="372.04724 : 350.78739 : 1"
       id="perspective2416" />
    <inkscape:perspective
       sodipodi:type="inkscape:persp3d"
       inkscape:vp_x="0 : 526.18109 : 1"
       inkscape:vp_y="0 : 1000 : 0"
       inkscape:vp_z="744.09448 : 526.18109 : 1"
       inkscape:persp3d-origin="372.04724 : 350.78739 : 1"
       id="perspective2403" />
    <inkscape:perspective
       sodipodi:type="inkscape:persp3d"
       inkscape:vp_x="0 : 526.18109 : 1"
       inkscape:vp_y="0 : 1000 : 0"
       inkscape:vp_z="744.09448 : 526.18109 : 1"
       inkscape:persp3d-origin="372.04724 : 350.78739 : 1"
       id="perspective2390" />
    <inkscape:perspective
       id="perspective2402"
       inkscape:persp3d-origin="372.04724 : 350.78739 : 1"
       inkscape:vp_z="744.09448 : 526.18109 : 1"
       inkscape:vp_y="0 : 1000 : 0"
       inkscape:vp_x="0 : 526.18109 : 1"
       sodipodi:type="inkscape:persp3d" />
  </defs>
  <sodipodi:namedview
     id="base"
     pagecolor="#ffffff"
     bordercolor="#666666"
     borderopacity="1.0"
     gridtolerance="10000"
     guidetolerance="10"
     objecttolerance="10"
     inkscape:pageopacity="0.0"
     inkscape:pageshadow="2"
     inkscape:zoom="0.35"
     inkscape:cx="375"
     inkscape:cy="520"
     inkscape:document-units="px"
     inkscape:current-layer="layer1"
     showgrid="false"
     inkscape:window-width="1152"
     inkscape:window-height="808"
     inkscape:window-x="-4"
     inkscape:window-y="-4" />
  <metadata
     id="metadata7">
    <rdf:RDF>
      <cc:Work
         rdf:about="">
        <dc:format>image/svg+xml</dc:format>
        <dc:type
           rdf:resource="http://purl.org/dc/dcmitype/StillImage" />
      </cc:Work>
    </rdf:RDF>
  </metadata>
  <g
     inkscape:label="Layer 1"
     inkscape:groupmode="layer"
     id="layer1"
     style="display:inline">
    <path
       style="fill:#000000"
       d="M 336.53637,1055.8495 C 329.14499,1054.0339 319.06219,1052.6422 314.12998,1052.7567 C 309.19802,1052.8713 305.16259,1051.2361 305.16259,1049.1227 C 305.16259,1046.69 301.3298,1046.7377 294.7141,1049.2532 C 288.26696,1051.7042 282.54334,1051.8107 279.76855,1049.5308 C 277.29524,1047.4987 268.66497,1045.8459 260.58992,1045.8582 C 252.51513,1045.8703 243.61905,1044.4654 240.82094,1042.7358 C 238.02231,1041.0065 227.59269,1039.0865 217.64358,1038.4692 C 189.66167,1036.7333 164.02593,1030.2541 148.20482,1020.9192 C 140.27422,1016.2402 133.78566,1011.2333 133.78566,1009.7928 C 133.78566,1008.3524 128.03975,1004.6305 121.01668,1001.522 C 113.99387,998.41322 103.2932,990.80138 97.237964,984.60695 C 91.182464,978.41225 82.772397,973.34398 78.549014,973.34398 C 74.325892,973.34398 69.838007,970.65387 68.576051,967.36581 C 67.314357,964.07775 62.63904,961.38738 58.186019,961.38738 C 53.732999,961.38738 49.809244,959.14554 49.466099,956.40562 C 49.122954,953.66544 48.419625,946.9399 47.902942,941.45981 C 47.386258,935.97971 43.358695,923.42543 38.952336,913.56125 C 34.257358,903.05116 29.809842,881.60211 28.208936,861.74951 C 26.706333,843.11744 23.067266,820.54983 20.122091,811.59974 C 17.176654,802.6494 13.586345,784.71464 12.14456,771.74459 C 9.6232699,749.0695 9.9970856,747.71108 21.86639,736.42635 C 33.808569,725.07268 34.127859,723.88019 31.662406,699.81469 C 29.180961,675.59663 29.447036,674.6343 41.726594,663.41878 C 52.89152,653.2209 55.925037,645.30156 68.155574,594.41439 C 84.634135,525.85539 95.85149,451.03562 101.87029,369.53856 C 108.25321,283.11609 118.18475,238.26449 141.64182,189.92577 C 180.09083,110.69417 229.07406,57.918944 292.34643,27.554806 C 321.66999,13.482769 329.52641,11.492292 362.56926,9.7639042 C 428.06119,6.3382476 495.09793,28.464495 536.46748,67.160895 C 571.4009,99.837184 605.22021,162.37875 629.4755,239.16129 C 655.61613,321.90982 677.35589,488.72364 673.24759,575.02788 C 670.73364,627.83813 670.95725,629.96909 683.07874,668.68759 C 697.9189,716.08826 704.97133,747.55038 715.63557,813.92338 C 724.58145,869.60121 725.86857,891.29012 719.65605,881.67708 C 716.82412,877.2951 715.66755,880.48748 715.32362,893.63368 C 714.95006,907.91365 712.99002,902.22829 705.70533,865.73513 C 687.66283,775.35194 670.50872,719.54199 645.37342,669.44859 C 632.43719,643.66737 627.1018,638.29475 622.24298,646.15667 C 621.01589,648.14214 624.61957,696.11795 630.25197,752.76912 C 636.32897,813.89585 641.08266,890.09947 641.94407,940.20912 L 643.39608,1024.6466 L 625.08907,1014.913 C 605.0818,1004.275 598.98986,1004.9584 609.57388,1016.6536 C 615.98327,1023.736 615.92036,1024.2553 608.41206,1026.219 C 604.04555,1027.3606 599.93856,1026.7844 599.2853,1024.9381 C 598.63256,1023.0919 590.00308,1025.6963 580.10929,1030.7257 C 568.05648,1036.8531 559.50774,1038.8503 554.20354,1036.7786 C 543.00952,1032.4074 539.45434,1032.507 542.30069,1037.1123 C 543.65544,1039.3044 540.96533,1041.0977 536.32252,1041.0977 C 531.67971,1041.0977 528.9896,1039.3044 530.34409,1037.1123 C 534.09116,1031.0495 523.85133,1032.3568 516.66757,1038.8582 C 508.17414,1046.5447 448.30124,1050.9818 444.13081,1044.2337 C 441.91492,1040.6484 439.23739,1041.159 433.62491,1046.238 C 429.48253,1049.9869 419.95757,1053.0268 412.45792,1052.9932 C 402.18769,1052.9473 400.29764,1051.9787 404.80073,1049.0687 C 409.35992,1046.1222 407.80594,1045.1908 398.2524,1045.1444 C 391.19683,1045.11 384.79897,1047.4989 383.60307,1050.6145 C 380.99947,1057.4003 354.74062,1060.3211 336.53637,1055.8495 z M 152.26935,986.51377 C 148.02421,982.26863 137.43049,981.52441 139.98036,985.65028 C 141.21583,987.6499 145.11049,989.28593 148.63448,989.28593 C 152.15846,989.28593 153.79397,988.0384 152.26935,986.51377 z M 193.25381,982.31136 C 193.06376,978.10371 192.13813,977.32305 190.92074,980.34346 C 189.8103,983.09727 187.38548,984.41296 185.53239,983.26766 C 183.67904,982.12209 181.03638,983.00788 179.65908,985.23557 C 178.27313,987.4782 180.81828,989.28593 185.362,989.28593 C 190.64051,989.28593 193.45592,986.79741 193.25381,982.31136 z M 83.96672,953.4164 C 82.611966,951.22437 79.710044,949.43078 77.518268,949.43078 C 75.325967,949.43078 74.640988,951.22437 75.995742,953.4164 C 77.350234,955.60844 80.252156,957.40202 82.444194,957.40202 C 84.636233,957.40202 85.321474,955.60844 83.96672,953.4164 z M 95.054838,928.09891 C 102.10858,925.13434 115.84827,914.03783 125.58819,903.43966 L 143.2962,884.17058 L 122.91486,879.5802 C 111.7051,877.0555 89.971626,867.52713 74.618181,858.40587 C 59.265261,849.28488 45.671844,841.82193 44.411199,841.82193 C 40.51261,841.82193 41.92792,874.8501 46.537439,891.45396 C 50.361579,905.22826 72.664169,933.48883 79.710568,933.48883 C 81.096256,933.48883 88.001098,931.06348 95.054838,928.09891 z M 157.20498,851.37887 C 196.50045,844.83736 213.4957,837.84313 213.4957,828.21305 C 213.4957,825.21308 218.03549,821.61937 223.58321,820.22687 C 237.14386,816.82346 249.33246,795.77654 249.35081,775.73231 C 249.36392,761.30921 251.0626,758.36666 264.31104,749.81766 C 289.04107,733.86023 284.10885,710.27891 251.71167,689.57906 L 239.4017,681.71373 L 254.34751,684.23083 C 268.08511,686.54476 269.29306,685.99269 269.29306,677.40096 C 269.29306,647.28703 222.87412,655.4554 207.28212,688.31318 C 191.50165,721.56731 146.42488,723.50559 117.84344,692.15855 L 107.87965,681.2306 L 126.1649,691.77975 C 151.63549,706.47469 167.10978,705.67175 184.00305,688.77822 C 204.78705,667.99422 201.6083,643.53262 177.00856,634.95714 C 155.80304,627.56498 111.55935,624.93857 98.608184,630.30306 C 86.91871,635.14484 77.98829,648.84783 77.98829,661.94213 C 77.98829,666.08556 72.632974,671.36354 65.03555,674.70744 C 52.290951,680.31703 52.082547,680.83529 52.082547,706.92689 C 52.082547,731.29648 51.167144,734.1672 40.783142,742.35628 C 30.838491,750.19907 29.810366,752.99273 32.207925,765.65685 C 33.706071,773.57121 35.590878,785.16552 36.395919,791.42182 C 39.670608,816.86986 48.767751,826.76235 88.153403,847.70363 C 110.52205,859.59731 108.4873,859.48905 157.20498,851.37887 z M 427.87612,678.78088 C 436.00884,674.5976 448.04329,665.39141 454.61967,658.32272 L 466.576,645.47038 L 450.63405,655.77129 C 414.65442,679.01943 374.75366,676.4845 329.88293,648.09941 L 307.1554,633.72219 L 322.99879,650.18161 C 354.94745,683.37283 396.77444,694.77893 427.87612,678.78088 z M 410.31648,629.83487 C 422.48069,626.32006 436.11238,615.76016 463.05228,588.98358 C 493.29937,558.92025 502.08011,547.19853 515.48216,518.99537 C 534.94705,478.03398 543.41479,444.91669 546.8701,396.23728 L 549.47265,359.57477 L 529.94458,359.73442 C 510.44587,359.8938 510.43277,359.90271 521.27683,365.78729 C 535.21365,373.3509 541.54781,384.6393 535.33896,390.84841 C 528.76599,397.42112 523.09951,396.52276 525.85384,389.34502 C 527.39498,385.32795 524.67053,381.63986 517.87395,378.54317 C 508.5996,374.31742 506.75674,374.93529 499.6857,384.64271 C 489.63147,398.44479 474.97323,398.8553 466.27349,385.57855 L 459.80957,375.71255 L 447.25057,385.07 C 434.4234,394.62746 424.72804,394.87152 424.72804,385.63649 C 424.72804,382.79958 427.41842,378.24563 430.70647,375.51673 C 433.99453,372.78808 436.68753,369.42977 436.6912,368.05431 C 436.69408,366.67858 410.46511,366.0961 378.40373,366.75984 L 320.11024,367.96649 L 328.57877,376.98053 C 333.23626,381.93818 337.04677,387.22403 337.04677,388.72663 C 337.04677,393.34899 325.28363,391.76355 313.19439,385.51197 C 302.4641,379.96319 301.52589,380.09662 299.17446,387.50478 C 295.20379,400.01581 270.54768,398.57324 264.58262,385.48051 C 259.92775,375.26533 247.95254,372.11568 243.17289,379.84969 C 241.69965,382.23256 242.49105,386.17834 244.93003,388.61784 C 257.13435,400.82216 244.08541,403.06479 229.84895,391.20991 L 220.29621,383.25492 L 229.54749,373.40752 C 238.16937,364.2299 238.27711,363.55672 231.129,363.50586 C 226.91112,363.47598 219.18839,362.3084 213.96782,360.91118 L 204.47562,358.37075 L 207.40166,389.8604 C 214.13978,462.37802 240.15825,530.91081 276.14836,570.94055 C 294.45484,591.30171 338.43848,622.53184 358.96715,629.74496 C 375.21739,635.45469 390.77478,635.48195 410.31648,629.83487 z M 353.3379,567.90572 C 347.86514,563.47394 344.9779,558.15375 346.61157,555.51056 C 350.63573,548.99946 405.2988,549.44353 414.34824,556.06054 C 420.92042,560.86614 420.62787,561.60879 410.31412,566.30796 C 389.47324,575.80382 363.97487,576.51895 353.3379,567.90572 z M 363.94891,514.69072 C 350.69602,506.9714 357.07002,503.05342 382.88008,503.05342 C 402.36621,503.05342 408.78609,504.42914 408.78609,508.60508 C 408.78609,518.90231 378.28734,523.04181 363.94891,514.69072 z M 345.74309,179.75463 C 352.53443,183.996 353.90963,183.54522 355.75957,176.47045 C 358.48717,166.04021 367.40002,165.92712 373.8414,176.24113 C 379.68666,185.60089 388.85851,186.81799 388.85851,178.23389 C 388.85851,169.92029 397.85578,170.77346 409.87372,180.22664 C 423.06632,190.60391 428.69925,190.30698 428.77448,179.23027 C 428.90057,160.75263 434.6297,158.73838 449.62165,171.90128 C 457.33311,178.67227 464.75097,184.21213 466.10572,184.21213 C 467.46021,184.21213 468.56881,178.93756 468.56881,172.49084 C 468.56881,158.52583 473.6017,154.46073 484.00116,160.02626 C 490.10201,163.29146 492.77351,162.38124 497.35944,155.47423 L 503.09172,146.84087 L 515.10887,155.39776 C 521.71802,160.10406 533.67409,171.20282 541.67757,180.06168 C 549.68106,188.92056 556.96076,196.16868 557.85467,196.16868 C 558.74831,196.16868 558.50373,185.40779 557.31125,172.25561 C 554.95904,146.3144 554.84553,146.49054 570.16201,152.31375 L 580.60683,156.28498 L 569.42487,135.79576 C 563.27447,124.52672 548.85819,105.25321 537.38787,92.965791 C 517.93372,72.126064 516.82014,71.489607 520.80969,83.493233 C 527.38292,103.2701 522.94406,107.59792 512.84553,91.258193 C 501.49265,72.889004 497.61005,72.680627 499.69644,90.552557 C 501.62136,107.04134 497.31828,108.17078 484.51077,94.538072 C 471.54283,80.734284 468.56881,81.979201 468.56881,101.21108 L 468.56881,117.84787 L 458.60503,108.48737 C 450.63851,101.00322 448.64124,100.41736 448.64124,105.56469 C 448.64124,115.89018 442.36187,116.9436 431.54245,108.43306 C 419.23091,98.748767 418.16399,98.691699 415.8359,107.59355 C 412.4304,120.61725 398.60472,117.07318 390.97191,101.21996 C 384.14519,87.04 383.80571,86.864783 380.44347,95.790485 C 378.53297,100.86339 375.35685,104.01739 373.38632,102.79937 C 371.41553,101.58135 366.65921,105.38279 362.81672,111.24698 L 355.83061,121.90925 L 346.3088,110.8395 C 337.07377,100.10313 336.48054,99.970641 326.60745,106.43983 C 321.0086,110.10828 315.92959,112.51813 315.32063,111.79496 C 314.71167,111.07184 312.00872,106.2476 309.3131,101.07452 L 304.41339,91.668918 L 295.82061,105.06004 L 287.22783,118.45116 L 286.00231,101.51272 C 285.32834,92.196585 283.25636,84.574284 281.39751,84.574284 C 279.53918,84.574284 270.50495,90.851478 261.32209,98.523587 C 237.1478,118.72059 234.06185,116.88824 244.70564,88.65729 C 245.92486,85.422893 238.62366,89.576966 228.48057,97.888572 C 209.89176,113.12049 189.36676,136.37712 175.29178,158.15485 L 167.66238,169.95992 L 179.61898,161.48029 C 186.19509,156.81648 195.61074,151.83172 200.54296,150.40302 C 208.63216,148.05967 209.51034,149.1747 209.51034,161.79216 L 209.51034,175.77897 L 226.4487,166.09426 C 247.08537,154.29505 248.16592,154.22585 251.42462,164.4944 C 253.45387,170.8872 255.21311,171.68632 259.47319,168.15064 C 262.47184,165.66209 268.44739,164.74391 272.75204,166.1102 C 277.05695,167.47646 281.73227,166.72789 283.14233,164.44672 C 287.72774,157.02716 292.48956,159.99087 305.83027,178.56746 L 318.94973,196.83586 L 328.41021,185.83716 C 336.60191,176.31359 338.92659,175.4978 345.74309,179.75463 z M 724.27081,909.57563 C 724.27081,904.0958 725.17573,901.85395 726.28145,904.59387 C 727.38691,907.33379 727.38691,911.81774 726.28145,914.55766 C 725.17573,917.29758 724.27081,915.05573 724.27081,909.57563 z"
       id="path2422"
       sodipodi:nodetypes="cssssssssssssssssssssssssssssssssssssssscccsssssssssssssssccssccssssccssscccccssssccsssscccsscccssssssssssccccccccccsscccssssscccssscccsssssscccscccssccsssccssccssssssssscccssscccssssscccsssssscccsscccccsssscccscccsssscccccssc" />
  </g>
</svg>
